<svg xmlns="http://www.w3.org/2000/svg" width="512" height="512"><path fill="#9bfcff" d="M161 0 60 162l77 52 93-4 2-90zm0 0"/><path fill="#76e2f8" d="M230 210 60 162l91 336 30 13h76l13-193zm0 0"/><path fill="#76e2f8" d="m230 210 133-83L161 0zm0 0"/><path fill="#28c7f7" d="m287 144-57 66 27 301 79-60 27-324zm0 0"/><path fill="#28c7f7" d="m181 305-68 13-7 73-30 51 30 69h75zm0 0"/><path fill="#76e2f8" d="m0 345 66 166h40V391l-46-50zm0 0"/><path fill="#9bfcff" d="m0 345 106 46 75-86-144-72zm0 0"/><path fill="#28c7f7" d="m512 380-59-42-58 18-68 78-7 77h63zm0 0"/><path fill="#76e2f8" d="m395 356 117 24V175l-93 98zm0 0"/><path fill="#9bfcff" d="m512 175-146 37-14 80 43 64zm0 0"/><path fill="#76e2f8" d="M366 212 257 511h63l75-155zm0 0"/></svg>