<svg xmlns="http://www.w3.org/2000/svg" width="512" height="512"><circle cx="256" cy="256" r="256" fill="#fff"/><path fill="#dd4247" d="M256 58a198 198 0 01140 338A198 198 0 11116 116a197 197 0 01140-58m0-58a256 256 0 100 512 256 256 0 000-512zm0 175a81 81 0 11-81 81 81 81 0 0181-81m0-58a139 139 0 10139 139A139 139 0 00256 117z"/><path fill="#e55353" d="M256 117a139 139 0 00-91 244 276 276 0 0066-28 81 81 0 11102-103 277 277 0 0027-67 139 139 0 00-104-46zM95 371A198 198 0 01369 93a278 278 0 00-9-71A255 255 0 00256 0 256 256 0 000 256a255 255 0 0023 107 279 279 0 0068 8h4z"/><path fill="#34344f" d="m501 59-29-6a16 16 0 01-13-13l-6-29c-2-11-20-14-30-7-21 17-47 43-65 63-4 4-5 9-4 15l6 43-117 118a19 19 0 0026 26l118-118 43 7c6 1 11 0 15-4 20-18 46-45 63-65 7-10 4-28-7-30z"/></svg>