<svg xmlns="http://www.w3.org/2000/svg" viewBox="0 0 512 512"><path fill="#0059b2" d="M481 247c-8-1-16 5-17 13-12 103-100 181-205 181-94 0-174-63-199-151l18 10c7 4 16 1 20-6s1-16-6-20l-46-25c-7-4-16-1-20 6L2 301c-4 7-1 16 6 20a15 15 0 007 2c5 0 10-3 13-8l6-11c30 98 121 168 226 168 120 0 220-89 234-208 1-8-5-16-13-17zm22-119c-8-3-16 0-20 8l-5 11c-15-36-39-68-69-94C368 19 314 0 260 0S152 19 110 53 40 134 29 187c-2 8 4 16 12 18s16-4 18-12c10-46 35-87 71-117 37-30 83-47 131-47s94 17 131 47c28 23 50 53 62 87l-19-8c-8-3-16 0-20 8-3 8 0 16 8 20l48 21a15 15 0 006 1c6 0 11-3 14-9l21-48c3-8 0-16-8-20z"/><path fill="#00cc66" d="M216 205V153h-6c-15 0-27 12-27 27 0 9 6 17 15 19Zm31-53v60l18 5V152Zm49 105v61h6c15 0 27-12 27-27v-9c0-10-6-18-15-20Zm-31 60V248l-18-5v74Zm-95-48c8 0 15 7 15 15v6c0 15 12 27 27 27h6V235l-27-7c-22-6-37-26-37-48 0-31 25-57 57-57h6V98c0-8 7-15 15-15s15 7 15 15v25h17V98c0-8 7-15 15-15s15 7 15 15v24h6c31 0 57 25 57 57v2c0 8-7 15-15 15s-15-7-15-15v-2c0-15-12-27-27-27h-6v74l27 7c22 6 37 26 37 48v9c0 31-25 57-57 57h-6v27c0 8-7 15-15 15s-15-7-15-15V347H247v27c0 8-7 15-15 15s-15-7-15-15V347h-6c-31 0-57-25-57-57v-6c0-8 7-15 15-15Z"/><path fill="#176ee5" d="m61 291 18 10c7 4 16 1 20-6s1-16-6-20l-46-25c-7-4-16-1-20 6L2 301c-4 7-1 16 6 20a15 15 0 007 2c5 0 10-3 13-8l6-11c29 97 118 166 222 168v-30c-92-2-171-64-195-151zM110 53c-41 34-70 81-81 134-2 8 3 16 12 18 8 2 16-3 18-12 10-45 35-87 71-117 35-29 80-45 126-46V0C203 1 151 20 110 53z"/><path fill="#00ff80" d="M216 153h-6c-15 0-27 12-27 27 0 9 6 17 15 19l19 5Zm40 163v30h-8v27c0 8-7 15-15 15s-15-7-15-15V346h-6c-31 0-57-25-57-57v-6c0-8 7-15 15-15s15 7 15 15v6c0 15 12 27 27 27h6V234l-27-7c-22-6-37-26-37-48 0-31 25-57 57-57h6V97c0-8 7-15 15-15s15 7 15 15v25h9v30h-9v60l9 3v31l-9-3v74Z"/></svg>